<?xml version="1.0" standalone="no"?>
<!DOCTYPE svg PUBLIC "-//W3C//DTD SVG 20010904//EN"
 "http://www.w3.org/TR/2001/REC-SVG-20010904/DTD/svg10.dtd">
<svg version="1.0" xmlns="http://www.w3.org/2000/svg"
 width="413.000000pt" height="413.000000pt" viewBox="0 0 413.000000 413.000000"
 preserveAspectRatio="xMidYMid meet">
<metadata>
Created by potrace 1.14, written by Peter Selinger 2001-2017
</metadata>
<g transform="translate(0.000000,413.000000) scale(0.100000,-0.100000)"
fill="#000000" stroke="none">
<path d="M1145 4064 c-13 -14 -36 -58 -52 -97 -15 -40 -45 -94 -66 -121 -63
-81 -132 -238 -152 -345 -3 -14 -7 -37 -10 -51 -31 -145 -22 -420 19 -620 40
-195 151 -481 246 -635 13 -21 21 -60 26 -127 l6 -97 -38 -6 c-84 -15 -242
-81 -305 -127 -24 -18 -31 -19 -61 -8 -71 26 -124 -17 -98 -79 12 -29 10 -33
-36 -85 -127 -142 -201 -335 -192 -500 4 -67 3 -69 -34 -105 -20 -21 -40 -51
-44 -67 -4 -16 -13 -33 -20 -39 -6 -5 -28 -32 -48 -58 -32 -44 -50 -102 -50
-167 0 -44 28 -222 41 -265 14 -43 66 -135 78 -135 2 0 -3 22 -10 49 -7 26
-11 68 -9 92 5 52 44 179 56 179 4 0 14 -15 21 -33 37 -88 231 -188 421 -217
81 -12 238 -16 297 -7 62 10 162 38 203 58 48 23 60 14 43 -30 -11 -30 -10
-34 12 -52 12 -10 27 -17 31 -14 18 11 32 -27 28 -78 -10 -122 -99 -181 -278
-187 -35 -1 -8 -16 56 -30 110 -25 222 -4 300 55 47 36 92 111 106 175 l11 57
96 1 c144 1 256 42 349 129 51 48 99 139 108 203 6 47 9 50 43 60 65 18 65 17
89 -77 13 -49 24 -103 26 -122 3 -32 28 -56 48 -45 3 2 9 -9 13 -26 8 -34 26
-42 19 -8 -6 34 -12 68 -19 113 -8 61 -13 83 -30 142 -9 31 -15 56 -13 58 2 1
37 18 78 38 41 20 92 50 113 67 45 38 127 156 97 140 -11 -6 -20 -15 -20 -20
0 -16 -102 -78 -150 -90 -111 -29 -176 -36 -195 -20 -18 15 -84 5 -91 -14 -10
-26 -311 -5 -493 35 -140 30 -126 128 29 203 92 45 144 82 236 173 142 139
216 296 217 456 l0 87 61 -58 c114 -109 267 -198 400 -234 89 -23 141 -23 246
3 219 53 511 -29 678 -190 39 -39 72 -66 72 -60 0 18 -31 73 -66 115 -100 124
-570 353 -725 354 -21 0 -70 17 -122 43 l-86 42 50 52 50 53 132 4 c73 2 143
7 157 10 14 3 48 8 75 11 28 2 99 13 160 24 l109 19 46 -38 c108 -89 260 -117
358 -65 l47 25 -70 -5 c-60 -5 -77 -2 -115 17 -43 22 -95 82 -85 98 2 4 22 10
44 14 91 14 295 96 279 112 -2 1 -23 -1 -46 -7 -64 -14 -117 -20 -219 -24
l-93 -3 -1 102 c0 55 -2 109 -4 118 -2 9 -6 41 -9 70 -13 129 -64 334 -101
405 -8 15 -15 32 -15 37 0 19 -71 124 -112 166 -29 30 -45 55 -46 74 -5 66
-75 136 -137 136 -32 0 -73 -35 -140 -120 -11 -14 -38 -37 -61 -51 -75 -50
-163 -148 -224 -251 -19 -31 -36 -55 -39 -53 -2 3 -15 46 -28 96 -55 215 -169
461 -301 653 -33 49 -66 114 -88 173 -41 115 -72 170 -118 211 -40 35 -76 35
-113 0 l-21 -20 -59 40 c-99 67 -231 125 -317 140 -80 14 -228 8 -284 -12 -53
-18 -54 -18 -76 3 -35 33 -64 34 -91 5z m579 -316 c47 -72 93 -266 67 -282
-13 -8 -18 3 -25 59 -7 48 -27 113 -55 178 -12 27 -21 53 -21 58 0 17 19 9 34
-13z m1429 -585 c9 -9 17 -23 17 -31 0 -10 -5 -12 -17 -6 -10 4 -35 9 -55 12
-35 4 -36 5 -25 29 9 20 16 23 36 18 14 -4 34 -14 44 -22z m-907 -268 c-8 -43
-42 -85 -69 -85 -19 0 -18 3 11 31 19 18 34 46 38 67 4 21 9 42 13 47 9 16 14
-23 7 -60z m842 -391 c29 -20 72 -64 97 -96 45 -60 106 -179 119 -229 6 -27 6
-27 -47 -23 -64 4 -125 12 -197 24 -30 5 -69 12 -86 15 -80 13 -165 46 -173
68 -15 38 -4 137 22 198 16 38 68 84 102 91 40 8 111 -13 163 -48z m-1718
-764 c0 -13 -71 -157 -102 -205 -50 -80 -148 -194 -208 -244 -59 -49 -84 -64
-62 -38 11 12 26 95 24 129 -1 14 2 15 26 2 15 -8 32 -14 39 -14 23 0 63 23
63 37 0 7 4 13 9 13 10 0 48 86 55 122 3 13 5 24 5 26 1 1 2 4 2 7 1 2 7 28
13 56 11 46 17 54 56 76 25 14 49 29 55 34 12 12 25 11 25 -1z m280 -20 c29
-29 40 -64 41 -129 1 -105 -49 -215 -123 -272 -153 -117 -219 -221 -219 -345
0 -132 123 -252 286 -278 48 -8 276 -9 325 -2 19 2 58 8 85 11 28 4 60 9 72
12 l23 5 -20 -58 c-20 -56 -55 -112 -95 -147 -58 -52 -201 -102 -285 -100
-103 3 -99 2 -106 31 -3 15 -9 36 -14 47 -5 15 -2 28 11 44 11 13 19 31 19 40
0 30 -38 61 -74 61 -24 0 -38 7 -49 23 -28 41 -75 86 -142 137 -63 47 -173
110 -193 110 -5 0 -25 7 -45 15 l-34 14 72 73 c194 195 326 432 370 659 7 35
34 69 55 69 11 0 29 -9 40 -20z m-514 -184 c-21 -77 -36 -94 -70 -78 -33 15
-42 46 -19 69 36 35 97 82 101 78 3 -3 -3 -34 -12 -69z m-174 -128 c10 -26 -1
-86 -26 -142 -9 -22 -19 -51 -23 -64 -7 -31 -50 -52 -64 -31 -25 40 11 153 72
223 25 29 35 32 41 14z m-285 -662 c24 -14 62 -34 85 -43 24 -9 57 -32 75 -51
33 -35 58 -37 93 -6 43 37 272 -26 366 -101 l29 -23 -40 -11 c-22 -6 -58 -13
-80 -17 -22 -3 -60 -10 -85 -15 -44 -8 -276 -5 -315 4 -11 3 -42 11 -70 17
-115 29 -235 111 -275 190 -19 37 -19 38 0 55 10 9 44 27 77 40 56 23 58 23
78 6 11 -10 39 -30 62 -45z"/>
<path d="M3109 1124 c-18 -20 -46 -45 -61 -55 -26 -19 -27 -19 -22 -2 4 12 -3
9 -20 -10 -15 -16 -24 -32 -21 -36 2 -5 -18 -33 -45 -62 -28 -30 -50 -57 -50
-61 0 -19 23 -4 75 49 30 31 55 50 55 42 0 -12 2 -11 10 1 6 9 10 11 10 3 0
-7 7 -10 15 -7 11 5 15 -1 15 -22 0 -35 33 -163 48 -190 15 -25 15 -18 -2 63
-8 38 -17 80 -19 93 -16 86 -20 101 -28 106 -5 3 -9 -3 -10 -13 0 -11 -3 -13
-6 -5 -2 6 -10 9 -16 6 -7 -4 11 17 39 47 53 57 79 89 72 89 -2 0 -20 -16 -39
-36z"/>
</g>
</svg>
